<svg xmlns="http://www.w3.org/2000/svg" viewBox="0 0 120 120" fill="none"><g stroke="#0E4C54" stroke-width="1.5" stroke-linejoin="round" stroke-linecap="round"><line x1="60" y1="10.8" x2="60" y2="60"></line><line x1="60" y1="10.8" x2="88.92" y2="20.2"></line><line x1="60" y1="10.8" x2="31.08" y2="20.2"></line><line x1="60" y1="10.8" x2="106.79" y2="44.8"></line><line x1="60" y1="10.8" x2="13.21" y2="44.8"></line><line x1="60" y1="60" x2="60" y2="109.2"></line><line x1="60" y1="60" x2="88.92" y2="20.2"></line><line x1="60" y1="60" x2="31.08" y2="20.2"></line><line x1="60" y1="60" x2="106.79" y2="75.2"></line><line x1="60" y1="60" x2="13.21" y2="75.2"></line><line x1="60" y1="60" x2="88.92" y2="99.8"></line><line x1="60" y1="60" x2="31.08" y2="99.8"></line><line x1="60" y1="60" x2="106.79" y2="44.8"></line><line x1="60" y1="60" x2="13.21" y2="44.8"></line><line x1="60" y1="109.2" x2="88.92" y2="99.8"></line><line x1="60" y1="109.2" x2="31.08" y2="99.8"></line><line x1="60" y1="109.2" x2="106.79" y2="75.2"></line><line x1="60" y1="109.2" x2="13.21" y2="75.2"></line><line x1="88.92" y1="20.2" x2="31.08" y2="20.2"></line><line x1="88.92" y1="20.2" x2="106.79" y2="44.8"></line><line x1="88.92" y1="20.2" x2="106.79" y2="75.2"></line><line x1="88.92" y1="99.8" x2="31.08" y2="99.8"></line><line x1="88.92" y1="99.8" x2="106.79" y2="44.8"></line><line x1="88.92" y1="99.8" x2="106.79" y2="75.2"></line><line x1="31.08" y1="20.2" x2="13.21" y2="44.8"></line><line x1="31.08" y1="20.2" x2="13.21" y2="75.2"></line><line x1="31.08" y1="99.8" x2="13.21" y2="44.8"></line><line x1="31.08" y1="99.8" x2="13.21" y2="75.2"></line><line x1="106.79" y1="44.8" x2="106.79" y2="75.2"></line><line x1="13.21" y1="44.8" x2="13.21" y2="75.2"></line></g><g fill="#0E4C54"><circle cx="60" cy="60" r="2.5"></circle><circle cx="60" cy="60" r="2.5"></circle><circle cx="60" cy="109.2" r="2.5"></circle><circle cx="88.92" cy="20.2" r="2.5"></circle><circle cx="88.92" cy="99.8" r="2.5"></circle><circle cx="31.08" cy="20.2" r="2.5"></circle><circle cx="31.08" cy="99.8" r="2.5"></circle><circle cx="106.79" cy="44.8" r="2.5"></circle><circle cx="106.79" cy="75.2" r="2.5"></circle><circle cx="13.21" cy="44.8" r="2.5"></circle><circle cx="13.21" cy="75.2" r="2.5"></circle></g><circle fill="#E0A458" cx="60" cy="10.8" r="4.6"></circle></svg>