<svg xmlns="http://www.w3.org/2000/svg" viewBox="0 0 1120 1040" fill="none"><g stroke="#3A8E97" stroke-width="3.6" stroke-linecap="round"><line x1="561.0" y1="114.1" x2="333.0" y2="188.9"></line><line x1="561.0" y1="114.1" x2="605.8" y2="350.2"></line><line x1="561.0" y1="114.1" x2="819.4" y2="203.5"></line><line x1="819.4" y1="203.5" x2="982.5" y2="358.8"></line><line x1="819.4" y1="203.5" x2="605.8" y2="350.2"></line><line x1="333.0" y1="188.9" x2="163.0" y2="421.8"></line><line x1="333.0" y1="188.9" x2="433.3" y2="478.6"></line><line x1="982.5" y1="358.8" x2="756.3" y2="513.8"></line><line x1="982.5" y1="358.8" x2="973.2" y2="633.8"></line><line x1="163.0" y1="421.8" x2="264.1" y2="645.3"></line><line x1="163.0" y1="421.8" x2="433.3" y2="478.6"></line><line x1="605.8" y1="350.2" x2="433.3" y2="478.6"></line><line x1="605.8" y1="350.2" x2="756.3" y2="513.8"></line><line x1="433.3" y1="478.6" x2="573.9" y2="658.4"></line><line x1="433.3" y1="478.6" x2="264.1" y2="645.3"></line><line x1="756.3" y1="513.8" x2="573.9" y2="658.4"></line><line x1="756.3" y1="513.8" x2="973.2" y2="633.8"></line><line x1="973.2" y1="633.8" x2="823.4" y2="774.6"></line><line x1="264.1" y1="645.3" x2="191.5" y2="868.2"></line><line x1="573.9" y1="658.4" x2="635.1" y2="879.2"></line><line x1="573.9" y1="658.4" x2="423.4" y2="835.1"></line><line x1="823.4" y1="774.6" x2="892.6" y2="934.7"></line><line x1="823.4" y1="774.6" x2="635.1" y2="879.2"></line><line x1="423.4" y1="835.1" x2="635.1" y2="879.2"></line><line x1="423.4" y1="835.1" x2="191.5" y2="868.2"></line><line x1="191.5" y1="868.2" x2="573.9" y2="658.4"></line><line x1="892.6" y1="934.7" x2="635.1" y2="879.2"></line><line x1="892.6" y1="934.7" x2="973.2" y2="633.8"></line></g><g fill="#57A6AD"><circle cx="561.0" cy="114.1" r="9"></circle><circle cx="819.4" cy="203.5" r="9"></circle><circle cx="333.0" cy="188.9" r="9"></circle><circle cx="982.5" cy="358.8" r="9"></circle><circle cx="163.0" cy="421.8" r="9"></circle><circle cx="433.3" cy="478.6" r="9"></circle><circle cx="756.3" cy="513.8" r="9"></circle><circle cx="973.2" cy="633.8" r="9"></circle><circle cx="264.1" cy="645.3" r="9"></circle><circle cx="573.9" cy="658.4" r="9"></circle><circle cx="423.4" cy="835.1" r="9"></circle><circle cx="635.1" cy="879.2" r="9"></circle><circle cx="191.5" cy="868.2" r="9"></circle><circle cx="892.6" cy="934.7" r="9"></circle></g><circle cx="605.8" cy="350.2" r="13" fill="#E0A458"></circle><circle cx="823.4" cy="774.6" r="13" fill="#E0A458"></circle></svg>