<svg xmlns="http://www.w3.org/2000/svg" viewBox="0 0 120 120" fill="none"><g stroke="#0E4C54" stroke-width="1.5" stroke-linejoin="round" stroke-linecap="round"><line x1="60" y1="18" x2="30" y2="34"></line><line x1="60" y1="18" x2="92" y2="30"></line><line x1="30" y1="34" x2="44" y2="58"></line><line x1="92" y1="30" x2="78" y2="60"></line><line x1="30" y1="34" x2="18" y2="66"></line><line x1="18" y1="66" x2="44" y2="58"></line><line x1="44" y1="58" x2="78" y2="60"></line><line x1="18" y1="66" x2="36" y2="92"></line><line x1="78" y1="60" x2="70" y2="90"></line><line x1="36" y1="92" x2="70" y2="90"></line><line x1="44" y1="58" x2="60" y2="52"></line><line x1="78" y1="60" x2="60" y2="52"></line><line x1="30" y1="34" x2="60" y2="52"></line><line x1="60" y1="52" x2="70" y2="90"></line><line x1="60" y1="18" x2="60" y2="52"></line><line x1="60" y1="52" x2="36" y2="92"></line></g><g fill="#0E4C54"><circle cx="60" cy="18" r="3"></circle><circle cx="30" cy="34" r="3"></circle><circle cx="92" cy="30" r="3"></circle><circle cx="18" cy="66" r="3"></circle><circle cx="44" cy="58" r="3"></circle><circle cx="78" cy="60" r="3"></circle><circle cx="36" cy="92" r="3"></circle><circle cx="70" cy="90" r="3"></circle></g><circle fill="#E0A458" cx="60" cy="52" r="5.2"></circle></svg>