<svg xmlns="http://www.w3.org/2000/svg" viewBox="0 0 1117.6 244">
  
  <g>
    <path d="M118.9,168.8c-25.8,0-46.8-21-46.8-46.8s21-46.8,46.8-46.8,46.8,21,46.8,46.8-21,46.8-46.8,46.8ZM118.9,82.2c-21.9,0-39.8,17.8-39.8,39.8s17.8,39.8,39.8,39.8,39.8-17.8,39.8-39.8-17.8-39.8-39.8-39.8Z"></path>
    <path d="M118.9,244c-56.2,0-104.9-38-118.4-92.5-1.2-4.6-.1-9.5,2.9-13.3,3-3.9,7.6-6.1,12.5-6.1h.7c7.2,0,13.5,5,15.3,12.1,10.2,39.8,46,67.6,87.1,67.6s72.6-24.4,85.1-60.8c.9-2.8.5-5.7-1.2-8.1-1.7-2.4-4.4-3.8-7.3-3.8s-7.2,2.5-8.6,6.4c-10.1,28.9-37.4,48.3-68,48.3s-63.7-24.2-70.5-57.5c-.4-1.9.8-3.8,2.7-4.2,1.9-.4,3.8.8,4.2,2.7,6.1,30.1,32.9,51.9,63.6,51.9s52.2-17.5,61.3-43.6c2.3-6.6,8.4-11.1,15.2-11.1s10,2.5,13.1,6.7c3,4.3,3.8,9.5,2.1,14.5-13.4,39.2-50.3,65.6-91.8,65.6s-83-30-93.9-72.9c-1-4-4.5-6.8-8.5-6.8h-.7c-2.7,0-5.2,1.2-6.9,3.4-1.6,2.1-2.2,4.7-1.6,7.3,12.7,51.3,58.6,87.1,111.6,87.1s3.5,1.6,3.5,3.5-1.6,3.5-3.5,3.5Z"></path>
    <path d="M185.9,111.9c-1.6,0-3.1-1.2-3.5-2.8-6.1-30.1-32.9-51.9-63.6-51.9s-52.2,17.5-61.3,43.6c-2.3,6.6-8.4,11.1-15.2,11.1s-10-2.5-13.1-6.7c-3-4.3-3.8-9.5-2.1-14.5C40.5,51.4,77.4,25,118.9,25s83,30,93.9,72.9c1,4,4.5,6.8,8.5,6.8h.7c2.7,0,5.2-1.2,6.9-3.4,1.6-2.1,2.2-4.7,1.6-7.3C217.7,42.9,171.8,7.1,118.9,7.1s-3.5-1.6-3.5-3.5,1.6-3.5,3.5-3.5c56.2,0,104.9,38,118.4,92.5,1.2,4.6.1,9.5-2.9,13.3-3,3.9-7.6,6.1-12.5,6.1h-.7c-7.2,0-13.5-5-15.3-12.1-10.2-39.8-46-67.6-87.1-67.6s-72.7,24.4-85.1,60.8c-.9,2.8-.5,5.7,1.2,8.1,1.7,2.4,4.4,3.8,7.3,3.8s7.2-2.5,8.6-6.4c10.1-28.9,37.4-48.3,68-48.3s63.7,24.2,70.5,57.5c.4,1.9-.8,3.8-2.7,4.2-.2,0-.5,0-.7,0Z"></path>
  </g>
  <g>
    <path d="M355,188.4c-10.5,0-20.2-1-29.2-3.1-9-2.1-16.8-5.6-23.5-10.5-6.6-4.9-11.8-11.5-15.4-19.8l30.2-9c2.3,4.1,4.9,7.3,8,9.9,3.1,2.5,7.2,4.4,12.2,5.6,5.1,1.2,11.6,1.8,19.6,1.8s17.2-1.1,22.3-3.2c5.1-2.1,7.6-4.9,7.6-8.3s-1.2-4.8-3.7-6.6c-2.5-1.8-7.2-3.1-14.2-3.9l-32.6-4.1c-15.1-1.9-26.4-5.6-33.8-11.1-7.4-5.5-11.2-13.2-11.2-23s2.6-15.8,7.8-21.5c5.2-5.7,12.5-10,22-12.8,9.5-2.9,20.6-4.3,33.4-4.3s18,1,26.4,2.9c8.4,1.9,15.9,5.2,22.5,9.8,6.6,4.6,11.8,11.1,15.6,19.4l-28.9,9c-3.4-6.3-8.1-10.5-14.3-12.7-6.1-2.1-14.2-3.2-24.1-3.2s-15,.9-20,2.6c-5,1.7-7.5,4.3-7.5,7.5s1.4,5.1,4.1,6.8c2.8,1.7,7.3,2.9,13.6,3.7l35.8,4.4c14.6,1.8,25.3,5.6,32.1,11.3,6.8,5.7,10.1,13.3,10.1,22.8s-2.7,16.1-8.1,22c-5.4,5.9-13,10.3-22.8,13.3-9.8,2.9-21.2,4.4-34.3,4.4Z"></path>
    <path d="M501.1,188.4c-13.1,0-24.3-1.7-33.7-5.1-9.4-3.4-16.6-8.8-21.7-16.1-5.1-7.3-7.6-16.9-7.6-28.7v-72h33.8v70.4c0,5.3.8,9.9,2.5,13.7,1.7,3.8,4.7,6.8,9,8.8,4.3,2,10.4,3,18.2,3s13.8-1,18.2-3c4.3-2,7.4-5,9.1-8.8,1.7-3.8,2.6-8.4,2.6-13.7v-70.4h32.9v72c0,11.8-2.5,21.4-7.6,28.7-5.1,7.3-12.3,12.7-21.7,16.1-9.4,3.4-20.7,5.1-34,5.1Z"></path>
    <path d="M587,186.4v-119.9h74c16,0,28,3.4,36.1,10.2,8,6.8,12.1,16.7,12.1,29.6s-2.2,17.1-6.7,23.3c-4.4,6.2-10.9,10.8-19.3,13.9l27.2,42.9h-38.5l-23.3-38.5h-27.7v38.5h-33.8ZM657.9,91.4h-37.2v32.3h37.2c11.6,0,17.4-5.1,17.4-15.4v-1.7c0-10.1-5.8-15.2-17.4-15.2Z"></path>
    <path d="M728.5,186.4v-119.9h111.5v25h-77.7v22.3h70.1v24h-70.1v23.6h78.9v25h-112.7Z"></path>
    <path d="M855.2,155.1v-23.5h66.5v23.5h-66.5Z"></path>
    <path d="M921.7,186.4l58.4-119.9h35.8l58.4,119.9h-36l-13.2-28.4h-56.6l-13,28.4h-34ZM979.5,135h35.3l-17.6-37.8-17.7,37.8Z"></path>
    <path d="M1083.9,186.4v-119.9h33.8v119.9h-33.8Z"></path>
  </g>
</svg>